Coordinates
version=1
nRows=9
nColumns=40
inDegrees=yes

Units are S.I. units (second, meters, Newtons, ...)
If the header above contains a line with 'inDegrees', this indicates whether rotational values are in degrees (yes) or radians (no).

endheader
time	pelvis_tilt	pelvis_list	pelvis_rotation	pelvis_tx	pelvis_ty	pelvis_tz	hip_flexion_r	hip_adduction_r	hip_rotation_r	knee_angle_r	knee_angle_r_beta	ankle_angle_r	subtalar_angle_r	mtp_angle_r	hip_flexion_l	hip_adduction_l	hip_rotation_l	knee_angle_l	knee_angle_l_beta	ankle_angle_l	subtalar_angle_l	mtp_angle_l	lumbar_extension	lumbar_bending	lumbar_rotation	arm_flex_r	arm_add_r	arm_rot_r	elbow_flex_r	pro_sup_r	wrist_flex_r	wrist_dev_r	arm_flex_l	arm_add_l	arm_rot_l	elbow_flex_l	pro_sup_l	wrist_flex_l	wrist_dev_l
      5.44000000000000039080	     50.10056144906658204263	      0.14412632904726607741	   -179.00222132415731834953	      0.46086867042625107027	      0.73507125473658752046	     -0.61330534925163249227	     92.51860122796091445707	    -11.63905301641276857083	     -9.31976427463072276680	     46.34632227590049069477	      0.80889591990485532058	      5.33259454528271170659	      0.00000000000000000000	      0.00000000000000000000	     91.96685115164997625925	     -8.51439899927042809225	     -1.94852301648807868517	     44.69926842053462934246	      0.78014940717105463186	      3.64563215938157814122	      0.00000000000000000000	      0.00000000000000000000	    -27.88092570057129648831	      4.27980640478731633181	      4.15298236327959280345	     67.14992344667996349017	    -10.67075618031921635520	     44.85805117407968367615	      1.05781998998111381738	     86.13444900262680903325	      0.00000000000000000000	      0.00000000000000000000	     55.84654556471639352822	     -0.17730434588209589841	     53.89713943153429909216	      0.54247908700633051815	      2.39852264248085189635	      0.00000000000000000000	      0.00000000000000000000
      5.44500000000000028422	     50.03794122497056662269	      0.14213707364852545822	   -179.07386155862505461300	      0.46056622971950472722	      0.73648631226253069570	     -0.61356119083612459253	     92.17897439235861156703	    -11.52018678811038832066	     -9.42262887882072242007	     45.91582256089476032912	      0.80138228244910814091	      5.13410170554287148548	      0.00000000000000000000	      0.00000000000000000000	     91.59153500825085814085	     -8.49385050426103482835	     -1.78223659990353655580	     44.20892864994532800438	      0.77159136372079761834	      3.49655637581105649403	      0.00000000000000000000	      0.00000000000000000000	    -27.94065789568545810084	      4.25902304657995767201	      4.18350869857410856412	     67.06849530070832088313	    -10.63816169349794549248	     44.99240112332601881917	      1.05647116480657365933	     86.13609959888268008399	      0.00000000000000000000	      0.00000000000000000000	     55.76418800427948241349	     -0.22032923763929887495	     53.82885866771889737947	      0.54530827029428063923	      2.40445319431812842836	      0.00000000000000000000	      0.00000000000000000000
      5.45000000000000017764	     50.02244971074507873254	      0.13076713762489761139	   -179.00038003161552069287	      0.46026713559664139686	      0.73760129642325666932	     -0.61325357341607855677	     91.98533076999873969726	    -11.63251600250470474407	     -9.55878344089464349054	     45.69199558424718077276	      0.79747576475182346822	      5.08453895464001970339	      0.00000000000000000000	      0.00000000000000000000	     91.40226655424827129082	     -8.38612317007089025367	     -1.83370840550347669051	     43.98731345261614222863	      0.76772344885494647748	      3.41315901809601029981	      0.00000000000000000000	      0.00000000000000000000	    -27.89161051195935669966	      4.32775035847309386128	      4.10462905919914700092	     66.94308020164034189747	    -10.65928948645996321432	     45.04054426640102093415	      1.05351330586004876544	     86.13927517702897773688	      0.00000000000000000000	      0.00000000000000000000	     55.53495532325881356428	     -0.17630490247147459493	     53.77793015532594722572	      0.55052717161643482946	      2.40502754195701129447	      0.00000000000000000000	      0.00000000000000000000
      5.45500000000000007105	     49.95179841264831566150	      0.20591213633137375738	   -179.07678379281952629754	      0.46002867086822024634	      0.73925786827740069818	     -0.61354299703662729115	     91.54211452065088394647	    -11.46117141813483186752	     -9.70574246186751921073	     45.09176179214167490272	      0.78699970879785119404	      4.81282217637807274713	      0.00000000000000000000	      0.00000000000000000000	     90.97851174116158290417	     -8.48182348480779246813	     -1.89354464538422107012	     43.35343016321657216849	      0.75666009838155179335	      3.17950949441421126807	      0.00000000000000000000	      0.00000000000000000000	    -27.98314563084312922570	      4.38877156654700595340	      4.18706614538232102518	     66.89317830280903365292	    -10.63152888317374689109	     45.22779069622756509261	      1.05197314730200552901	     86.13770464947624816432	      0.00000000000000000000	      0.00000000000000000000	     55.55523562855753283429	     -0.23070915506486947000	     53.69849112380343569839	      0.54919020026441089932	      2.41365314652721574262	      0.00000000000000000000	      0.00000000000000000000
      5.45999999999999996447	     49.91614554536363357329	      0.17894883651388610035	   -178.97603623807776784815	      0.45969677656834706525	      0.74026740131221535623	     -0.61313555684677356616	     91.36336086022897973180	    -11.59761702507690550590	     -9.76892857683463766705	     44.93655416788171663711	      0.78429082473031663802	      4.77127038966231253880	      0.00000000000000000000	      0.00000000000000000000	     90.81344204845089507216	     -8.33083994589298804101	     -1.90930402750875183315	     43.23005168848442281160	      0.75450673777138721476	      3.09674458983650380262	      0.00000000000000000000	      0.00000000000000000000	    -27.91648101309863605479	      4.46573748735759057382	      4.07758961203121383932	     66.73359981997498380224	    -10.65149770478147850383	     45.26855619366242677870	      1.04135538268946126195	     86.14326292608735968770	      0.00000000000000000000	      0.00000000000000000000	     55.30268621179267540811	     -0.16863254001019339912	     53.65232972461306815148	      0.54662813774478835604	      2.41272043049623308164	      0.00000000000000000000	      0.00000000000000000000
      5.46499999999999985789	     49.77625347506316444424	      0.03448903226436995234	   -178.98950771248865976304	      0.45929085975155303778	      0.74211782549266902542	     -0.61281078072301164994	     90.88989974984750119802	    -11.60441564279659587555	     -9.82903636125490898223	     44.31428734566429028519	      0.77343021985670035168	      4.43606464042944548254	      0.00000000000000000000	      0.00000000000000000000	     90.30185849261985708836	     -8.43257628862161112693	     -2.53505489948026019320	     42.68659298951865110894	      0.74502159412582980025	      2.74227697199559505847	      0.00000000000000000000	      0.00000000000000000000	    -28.10390062845157643778	      4.38082419970546421695	      4.02941552485237153292	     66.71738098010337125743	    -10.68549221680808614110	     45.50657432595664886321	      1.05755261844248282799	     86.13989161170883335217	      0.00000000000000000000	      0.00000000000000000000	     55.36530382249466697431	     -0.18112088861818576024	     53.58325732857426970668	      0.54589879767850824077	      2.41839621087584522030	      0.00000000000000000000	      0.00000000000000000000
      5.46999999999999975131	     49.67151744964191095733	      0.12712649815907378636	   -179.10962166021866437404	      0.45898473334846340288	      0.74343103787953779271	     -0.61337924790131326258	     90.52227130246069464192	    -11.36043189579175738402	     -9.87735414765440822293	     43.95000752785792030863	      0.76707233763741422550	      4.26116440310760857813	      0.00000000000000000000	      0.00000000000000000000	     89.86540147180605231370	     -8.44952988114530256780	     -2.16184170811616649388	     42.10904054440463539777	      0.73494140235564642261	      2.67988484913213875771	      0.00000000000000000000	      0.00000000000000000000	    -28.17952346400189611586	      4.40575415282615789891	      4.13581148286841582262	     66.60637017650830671300	    -10.63184179548165886331	     45.69581494121552367460	      1.05085783229455564936	     86.13524735993202341433	      0.00000000000000000000	      0.00000000000000000000	     55.26883875692044512107	     -0.24062127879385084017	     53.53363147466131266583	      0.54888347852097585378	      2.41905499578145244399	      0.00000000000000000000	      0.00000000000000000000
      5.47499999999999964473	     49.66457180186421993540	      0.12264613235377549993	   -178.95381830432276615284	      0.45879810709873308783	      0.74450211268525190444	     -0.61276175157288925721	     90.33667429380591329391	    -11.55776431179016938700	     -9.99926711979568594302	     43.71080782086693261590	      0.76289751518061577062	      4.20990884998332592914	      0.00000000000000000000	      0.00000000000000000000	     89.73045098531689234278	     -8.33520238692180193141	     -2.43188110238435850619	     41.94466126801010830150	      0.73207244276051608445	      2.57734489655927712093	      0.00000000000000000000	      0.00000000000000000000	    -28.08988963583253450906	      4.54573268033821786815	      4.00258767336432885742	     66.47149242489625464714	    -10.67202482397111573675	     45.74143826265478196547	      1.02994448548144190703	     86.13570604371818717482	      0.00000000000000000000	      0.00000000000000000000	     55.04006717720094599144	     -0.15546613005920997819	     53.51402439535975474882	      0.54868265792747794585	      2.41769202258118154347	      0.00000000000000000000	      0.00000000000000000000
      5.48000000000000042633	     49.53548153438413947924	      0.18478953346294324511	   -179.05965532846425958269	      0.45849116853792332149	      0.74611495428354068782	     -0.61319124441032701878	     89.84972272383491542769	    -11.33155202509600734118	    -10.09892215418218697209	     43.12913332734146365510	      0.75274538009372582437	      3.90246948768393231433	      0.00000000000000000000	      0.00000000000000000000	     89.26257820897431827234	     -8.42310558110393259312	     -2.37892969476734261747	     41.35872234602965846761	      0.72184587935637112288	      2.30312323311913758062	      0.00000000000000000000	      0.00000000000000000000	    -28.22349641096215933089	      4.57042995781884897610	      4.09843037632803852688	     66.42395817600272778236	    -10.62172706656928689029	     45.92799092173063968403	      1.02574799654040704766	     86.12576279566840753432	      0.00000000000000000000	      0.00000000000000000000	     55.06520250406796179732	     -0.24673777871556576424	     53.57389760757602914509	      0.54919503689571869121	      2.41653355819298765184	      0.00000000000000000000	      0.00000000000000000000
